<svg version="1.1" id="Layer_1" xmlns="http://www.w3.org/2000/svg" xmlns:xlink="http://www.w3.org/1999/xlink" x="0px" y="0px"
	 width="100%" viewBox="0 0 665 375" enable-background="new 0 0 665 375" xml:space="preserve">
<path fill="#000000" opacity="1.000000" stroke="none" 
	d="
M630.000000,376.000000 
	C420.050262,376.000000 210.600540,376.000000 1.075410,376.000000 
	C1.075410,251.080307 1.075410,126.160561 1.075410,1.120404 
	C222.666626,1.120404 444.333313,1.120404 665.995239,1.120404 
	C665.995239,126.066330 665.995239,251.033157 665.992859,376.000000 
	C654.160339,376.000000 642.330139,376.000000 630.000000,376.000000 
M236.997589,174.025803 
	C236.997589,174.025803 237.036041,174.081177 236.263062,174.006714 
	C235.885483,172.652985 235.507919,171.299271 234.962479,169.298203 
	C234.909378,168.856903 234.856262,168.415604 234.923950,167.454025 
	C234.622131,167.348709 234.320312,167.243408 233.345932,166.791656 
	C232.825836,165.197052 232.305725,163.602432 231.636429,161.296494 
	C230.606155,160.772110 229.575882,160.247726 228.760468,159.832687 
	C227.473587,162.949493 226.429291,165.478729 225.090347,168.802963 
	C225.044525,170.495941 224.998703,172.188904 224.383377,174.039490 
	C224.570145,174.406296 224.756912,174.773102 225.025101,175.591110 
	C225.025101,175.591110 225.211960,176.009842 225.089264,176.494247 
	C225.089264,176.494247 225.195831,176.982468 225.130341,177.643723 
	C225.252548,178.036057 225.374756,178.428406 225.496964,178.820740 
	C225.335281,178.859909 225.071320,178.981476 225.026825,178.926254 
	C223.764099,177.358749 222.523453,175.773438 220.455231,173.143127 
	C214.501022,182.866547 208.914871,191.988922 203.333572,201.110947 
	C207.917648,205.239563 221.617645,203.550430 229.119461,197.931717 
	C235.683945,203.137650 249.345978,204.912781 255.715881,201.383087 
	C254.431961,198.762650 253.320984,196.039001 251.830505,193.541855 
	C247.920746,186.991531 243.845551,180.539993 239.551804,173.513107 
	C238.722809,173.685730 237.893799,173.858368 236.997589,174.025803 
M303.107788,182.547302 
	C302.684998,179.367447 302.463470,176.141388 301.748840,173.028534 
	C301.424103,171.613998 300.123138,170.423569 299.264954,169.131500 
	C298.187592,170.439957 296.221313,171.719223 296.177246,173.061600 
	C295.893311,181.712997 295.912018,190.381622 296.163940,199.034912 
	C296.198853,200.234070 298.067505,201.379852 299.087250,202.550323 
	C300.005219,201.305099 301.576050,200.128235 301.714996,198.801422 
	C302.085846,195.260773 301.841217,191.655670 301.841217,188.247711 
	C307.650360,188.247711 312.723297,188.247711 318.361328,188.247711 
	C318.361328,191.697388 318.582825,194.851120 318.288635,197.955948 
	C318.068237,200.281601 318.017120,202.684082 320.704803,202.581680 
	C321.735107,202.542419 323.438324,199.481964 323.482483,197.763474 
	C323.691925,189.604614 323.107697,181.419113 323.472626,173.272949 
	C323.675476,168.744980 321.827515,168.725937 318.636078,169.478409 
	C317.608307,183.255371 317.608307,183.255371 303.107788,182.547302 
M385.896423,169.139450 
	C382.097076,169.139450 378.297760,169.139450 374.354462,169.139450 
	C373.846924,171.683167 373.001099,173.887497 373.043945,176.074432 
	C373.195709,183.816055 373.568146,191.557236 374.080475,199.283768 
	C374.157928,200.451691 375.423218,201.540848 376.139069,202.666458 
	C377.043182,201.528076 378.542145,200.478790 378.728790,199.232910 
	C379.128906,196.562042 378.851440,193.789658 378.851440,190.473633 
	C385.777679,192.980316 386.749359,203.418365 396.368805,201.441986 
	C393.092804,197.615356 390.252869,194.298096 387.162048,190.687805 
	C388.451202,189.887253 389.351868,189.259995 390.312286,188.743973 
	C393.545929,187.006561 394.855927,184.521133 395.193115,180.674301 
	C395.779999,173.979172 392.251953,171.031815 385.896423,169.139450 
M463.313416,187.054794 
	C460.608215,180.737244 457.902985,174.419693 454.586609,166.674820 
	C449.895386,176.698898 445.729645,185.137939 442.033020,193.777695 
	C440.907623,196.407959 436.860840,200.339905 440.495667,202.117386 
	C445.286652,204.460266 445.672729,198.318390 446.723236,195.598373 
	C447.972565,192.363724 449.612488,192.045486 452.479034,191.919556 
	C454.682953,191.822739 456.838867,190.633438 459.335754,189.826675 
	C460.380005,192.061066 461.728668,194.864243 463.006531,197.699310 
	C465.316833,202.824844 465.299194,202.832794 469.873901,200.844772 
	C467.836792,196.456421 465.799042,192.066696 463.313416,187.054794 
M340.154724,185.458862 
	C338.216461,189.440430 336.093262,193.347321 334.439117,197.443619 
	C333.851379,198.899078 334.403656,200.814911 334.435516,202.520569 
	C335.870789,201.509720 337.992737,200.810349 338.617981,199.432037 
	C340.865814,194.476624 343.671967,190.788422 349.818420,191.553970 
	C350.089722,191.587753 350.400482,191.304718 350.799805,191.119705 
	C351.606384,187.240875 349.797974,186.103287 345.292267,186.956802 
	C346.406769,184.024551 347.347198,181.550339 348.760284,177.832474 
	C351.939697,186.011749 354.363403,192.847900 357.336914,199.435883 
	C358.004486,200.914932 360.594727,201.526138 362.299835,202.536880 
	C362.434784,200.916122 363.141998,199.068680 362.605347,197.713974 
	C360.317474,191.938599 357.727448,186.278580 355.119415,180.635742 
	C353.063538,176.187607 350.820160,171.826141 348.256775,166.604706 
	C345.293396,173.774246 342.990967,179.344727 340.154724,185.458862 
M421.300262,202.579544 
	C426.647552,191.684082 431.994812,180.788620 437.603180,169.361206 
	C434.757782,169.361206 433.003967,169.361206 431.477600,169.361206 
	C428.105835,176.859711 424.861084,184.075714 421.249237,192.108078 
	C420.126770,190.309052 419.353943,189.314377 418.837463,188.200806 
	C416.506805,183.175644 414.159821,178.154572 411.997528,173.056183 
	C410.670837,169.928024 408.923645,168.105515 404.659424,169.857391 
	C407.504700,175.926422 410.260712,181.955322 413.149353,187.920029 
	C415.552368,192.882050 418.111145,197.768616 421.300262,202.579544 
M275.804321,197.138657 
	C275.828369,192.326706 275.861328,187.514786 275.874512,182.702805 
	C275.897003,174.487411 275.899475,174.578354 284.120300,173.886383 
	C285.374023,173.780884 286.519165,172.386017 287.714508,171.587494 
	C286.517151,170.771912 285.340851,169.289200 284.118927,169.250610 
	C276.990021,169.025406 269.850159,169.175797 262.714569,169.120850 
	C259.549469,169.096481 258.733215,170.633575 259.442352,173.985611 
	C261.619080,173.985611 263.770660,174.216446 265.854187,173.937851 
	C270.270752,173.347260 271.248474,175.429840 271.081940,179.398422 
	C270.818634,185.671463 270.844482,191.970901 271.123535,198.242477 
	C271.193909,199.823639 272.689209,201.341370 273.529724,202.888245 
	C274.289429,201.273285 275.049133,199.658340 275.804321,197.138657 
z"/>
<path fill="#E4E7E9" opacity="1.000000" stroke="none" 
	d="
M234.803162,167.974304 
	C234.856262,168.415604 234.909378,168.856903 234.764313,169.881134 
	C234.046158,173.077118 233.526184,175.690170 233.006210,178.303238 
	C233.660889,178.520599 234.315567,178.737961 234.970230,178.955338 
	C235.658844,177.330612 236.347443,175.705902 237.036041,174.081177 
	C237.036041,174.081177 236.997589,174.025803 237.377655,174.024780 
	C238.450577,174.032196 239.143433,174.040649 239.836273,174.049103 
	C243.845551,180.539993 247.920746,186.991531 251.830505,193.541855 
	C253.320984,196.039001 254.431961,198.762650 255.712250,201.384781 
	C249.345978,204.912781 235.683945,203.137650 229.119461,197.931717 
	C221.617645,203.550430 207.917648,205.239563 203.331146,201.111115 
	C208.914871,191.988922 214.501022,182.866547 220.455231,173.143127 
	C222.523453,175.773438 223.764099,177.358749 225.026825,178.926254 
	C225.071320,178.981476 225.335281,178.859909 225.496964,178.820740 
	C225.374756,178.428406 225.252548,178.036057 225.293320,177.218216 
	C225.633209,176.469147 225.551758,176.208191 225.211960,176.009842 
	C225.211960,176.009842 225.025101,175.591110 225.003540,175.051056 
	C224.972275,174.301300 224.962570,174.091599 224.952881,173.881882 
	C224.998703,172.188904 225.044525,170.495941 225.570053,168.423218 
	C226.431595,168.990677 226.764511,169.961395 227.205933,170.880005 
	C228.009033,172.551285 228.876556,174.191605 229.717194,175.844849 
	C230.568619,175.536209 231.420044,175.227585 232.271454,174.918945 
	C231.627991,171.424911 231.503983,167.716019 230.175964,164.505096 
	C229.121597,161.955811 230.088013,162.094254 231.785629,162.007828 
	C232.305725,163.602432 232.825836,165.197052 233.775223,167.137085 
	C234.357605,167.702988 234.557159,167.866913 234.803162,167.974304 
M223.000000,188.999893 
	C223.000000,188.999893 222.991074,188.987045 222.829391,188.305267 
	C221.035522,188.345047 219.049362,187.924011 217.507385,188.567444 
	C216.226196,189.102020 215.457260,190.880676 214.479584,192.122528 
	C212.752457,194.316360 211.039124,196.521057 209.320038,198.721222 
	C212.628784,199.033020 215.933136,199.443359 219.249207,199.591248 
	C220.140381,199.630981 221.095840,198.927139 221.972992,198.470779 
	C227.773453,195.452927 227.999847,193.328217 223.000000,188.999893 
M235.838394,185.405502 
	C233.279755,188.658112 230.142410,191.850800 233.073715,196.383057 
	C235.177444,199.635742 241.354599,201.364929 245.726852,199.709869 
	C247.019608,199.220505 248.641373,197.127808 248.551071,195.883102 
	C248.149200,190.343628 241.992554,185.082962 235.838394,185.405502 
M227.901596,187.631134 
	C229.544601,185.950729 231.187622,184.270325 232.830643,182.589920 
	C231.935089,182.076935 231.051453,181.149063 230.141907,181.122925 
	C226.253342,181.011169 228.261597,184.519394 227.245270,186.212677 
	C227.120087,186.421249 227.339554,186.836685 227.901596,187.631134 
z"/>
<path fill="#DEE1E3" opacity="1.000000" stroke="none" 
	d="
M303.515778,182.767883 
	C317.608307,183.255371 317.608307,183.255371 318.636078,169.478409 
	C321.827515,168.725937 323.675476,168.744980 323.472626,173.272949 
	C323.107697,181.419113 323.691925,189.604614 323.482483,197.763474 
	C323.438324,199.481964 321.735107,202.542419 320.704803,202.581680 
	C318.017120,202.684082 318.068237,200.281601 318.288635,197.955948 
	C318.582825,194.851120 318.361328,191.697388 318.361328,188.247711 
	C312.723297,188.247711 307.650360,188.247711 301.841217,188.247711 
	C301.841217,191.655670 302.085846,195.260773 301.714996,198.801422 
	C301.576050,200.128235 300.005219,201.305099 299.087250,202.550323 
	C298.067505,201.379852 296.198853,200.234070 296.163940,199.034912 
	C295.912018,190.381622 295.893311,181.712997 296.177246,173.061600 
	C296.221313,171.719223 298.187592,170.439957 299.264954,169.131500 
	C300.123138,170.423569 301.424103,171.613998 301.748840,173.028534 
	C302.463470,176.141388 302.684998,179.367447 303.515778,182.767883 
z"/>
<path fill="#E4E7E9" opacity="1.000000" stroke="none" 
	d="
M386.327209,169.156418 
	C392.251953,171.031815 395.779999,173.979172 395.193115,180.674301 
	C394.855927,184.521133 393.545929,187.006561 390.312286,188.743973 
	C389.351868,189.259995 388.451202,189.887253 387.162048,190.687805 
	C390.252869,194.298096 393.092804,197.615356 396.368805,201.441986 
	C386.749359,203.418365 385.777679,192.980316 378.851440,190.473633 
	C378.851440,193.789658 379.128906,196.562042 378.728790,199.232910 
	C378.542145,200.478790 377.043182,201.528076 376.139038,202.666443 
	C375.423218,201.540848 374.157928,200.451691 374.080475,199.283768 
	C373.568146,191.557236 373.195709,183.816055 373.043945,176.074432 
	C373.001099,173.887497 373.846924,171.683167 374.354462,169.139450 
	C378.297760,169.139450 382.097076,169.139450 386.327209,169.156418 
M378.761932,177.772064 
	C378.761932,180.041794 378.761932,182.311508 378.761932,184.666077 
	C383.253937,185.296661 387.626007,186.935883 389.869415,181.776382 
	C391.024384,179.120071 390.391174,176.439697 387.456116,175.061569 
	C384.204071,173.534576 381.043182,173.133148 378.761932,177.772064 
z"/>
<path fill="#E4E7E9" opacity="1.000000" stroke="none" 
	d="
M463.537354,187.365891 
	C465.799042,192.066696 467.836792,196.456421 469.873901,200.844772 
	C465.299194,202.832794 465.316833,202.824844 463.006531,197.699310 
	C461.728668,194.864243 460.380005,192.061066 459.335754,189.826675 
	C456.838867,190.633438 454.682953,191.822739 452.479034,191.919556 
	C449.612488,192.045486 447.972565,192.363724 446.723236,195.598373 
	C445.672729,198.318390 445.286652,204.460266 440.495667,202.117386 
	C436.860840,200.339905 440.907623,196.407959 442.033020,193.777695 
	C445.729645,185.137939 449.895386,176.698898 454.586609,166.674820 
	C457.902985,174.419693 460.608215,180.737244 463.537354,187.365891 
z"/>
<path fill="#DEE1E3" opacity="1.000000" stroke="none" 
	d="
M340.421631,185.187027 
	C342.990967,179.344727 345.293396,173.774246 348.256775,166.604706 
	C350.820160,171.826141 353.063538,176.187607 355.119415,180.635742 
	C357.727448,186.278580 360.317474,191.938599 362.605347,197.713974 
	C363.141998,199.068680 362.434784,200.916122 362.299835,202.536880 
	C360.594727,201.526138 358.004486,200.914932 357.336914,199.435883 
	C354.363403,192.847900 351.939697,186.011749 348.760284,177.832474 
	C347.347198,181.550339 346.406769,184.024551 345.292267,186.956802 
	C349.797974,186.103287 351.606384,187.240875 350.799805,191.119705 
	C350.400482,191.304718 350.089722,191.587753 349.818420,191.553970 
	C343.671967,190.788422 340.865814,194.476624 338.617981,199.432037 
	C337.992737,200.810349 335.870789,201.509720 334.435516,202.520569 
	C334.403656,200.814911 333.851379,198.899078 334.439117,197.443619 
	C336.093262,193.347321 338.216461,189.440430 340.421631,185.187027 
z"/>
<path fill="#DEE1E3" opacity="1.000000" stroke="none" 
	d="
M420.950592,202.634064 
	C418.111145,197.768616 415.552368,192.882050 413.149353,187.920029 
	C410.260712,181.955322 407.504700,175.926422 404.659424,169.857391 
	C408.923645,168.105515 410.670837,169.928024 411.997528,173.056183 
	C414.159821,178.154572 416.506805,183.175644 418.837463,188.200806 
	C419.353943,189.314377 420.126770,190.309052 421.249237,192.108078 
	C424.861084,184.075714 428.105835,176.859711 431.477600,169.361206 
	C433.003967,169.361206 434.757782,169.361206 437.603180,169.361206 
	C431.994812,180.788620 426.647552,191.684082 420.950592,202.634064 
z"/>
<path fill="#E4E7E9" opacity="1.000000" stroke="none" 
	d="
M275.806580,197.591034 
	C275.049133,199.658340 274.289429,201.273285 273.529724,202.888245 
	C272.689209,201.341370 271.193909,199.823639 271.123535,198.242477 
	C270.844482,191.970901 270.818634,185.671463 271.081940,179.398422 
	C271.248474,175.429840 270.270752,173.347260 265.854187,173.937851 
	C263.770660,174.216446 261.619080,173.985611 259.442352,173.985611 
	C258.733215,170.633575 259.549469,169.096481 262.714569,169.120850 
	C269.850159,169.175797 276.990021,169.025406 284.118927,169.250610 
	C285.340851,169.289200 286.517151,170.771912 287.714508,171.587494 
	C286.519165,172.386017 285.374023,173.780884 284.120300,173.886383 
	C275.899475,174.578354 275.897003,174.487411 275.874512,182.702805 
	C275.861328,187.514786 275.828369,192.326706 275.806580,197.591034 
z"/>
<path fill="#DEE1E3" opacity="1.000000" stroke="none" 
	d="
M231.711029,161.652161 
	C230.088013,162.094254 229.121597,161.955811 230.175964,164.505096 
	C231.503983,167.716019 231.627991,171.424911 232.271454,174.918945 
	C231.420044,175.227585 230.568619,175.536209 229.717194,175.844849 
	C228.876556,174.191605 228.009033,172.551285 227.205933,170.880005 
	C226.764511,169.961395 226.431595,168.990677 225.717377,168.025726 
	C226.429291,165.478729 227.473587,162.949493 228.760468,159.832687 
	C229.575882,160.247726 230.606155,160.772110 231.711029,161.652161 
z"/>
<path fill="#DEE1E3" opacity="1.000000" stroke="none" 
	d="
M236.649551,174.043945 
	C236.347443,175.705902 235.658844,177.330612 234.970230,178.955338 
	C234.315567,178.737961 233.660889,178.520599 233.006210,178.303238 
	C233.526184,175.690170 234.046158,173.077118 234.848236,170.204803 
	C235.507919,171.299271 235.885483,172.652985 236.649551,174.043945 
z"/>
<path fill="#DEE1E3" opacity="1.000000" stroke="none" 
	d="
M239.694031,173.781097 
	C239.143433,174.040649 238.450577,174.032196 237.411270,174.027374 
	C237.893799,173.858368 238.722809,173.685730 239.694031,173.781097 
z"/>
<path fill="#DEE1E3" opacity="1.000000" stroke="none" 
	d="
M225.150604,176.252045 
	C225.551758,176.208191 225.633209,176.469147 225.326065,176.887589 
	C225.195831,176.982468 225.089264,176.494247 225.150604,176.252045 
z"/>
<path fill="#DEE1E3" opacity="1.000000" stroke="none" 
	d="
M224.668121,173.960693 
	C224.962570,174.091599 224.972275,174.301300 224.962830,174.825439 
	C224.756912,174.773102 224.570145,174.406296 224.668121,173.960693 
z"/>
<path fill="#DEE1E3" opacity="1.000000" stroke="none" 
	d="
M234.863556,167.714172 
	C234.557159,167.866913 234.357605,167.702988 234.111511,167.310303 
	C234.320312,167.243408 234.622131,167.348709 234.863556,167.714172 
z"/>
<path fill="#ABD0D8" opacity="1.000000" stroke="none" 
	d="
M236.055237,185.127350 
	C241.992554,185.082962 248.149200,190.343628 248.551071,195.883102 
	C248.641373,197.127808 247.019608,199.220505 245.726852,199.709869 
	C241.354599,201.364929 235.177444,199.635742 233.073715,196.383057 
	C230.142410,191.850800 233.279755,188.658112 236.055237,185.127350 
z"/>
<path fill="#ABD0D8" opacity="1.000000" stroke="none" 
	d="
M223.009796,189.011734 
	C227.999847,193.328217 227.773453,195.452927 221.972992,198.470779 
	C221.095840,198.927139 220.140381,199.630981 219.249207,199.591248 
	C215.933136,199.443359 212.628784,199.033020 209.320038,198.721222 
	C211.039124,196.521057 212.752457,194.316360 214.479584,192.122528 
	C215.457260,190.880676 216.226196,189.102020 217.507385,188.567444 
	C219.049362,187.924011 221.035522,188.345047 222.658264,188.547562 
	C222.045166,188.910049 221.603210,189.030258 221.161240,189.150452 
	C221.422882,189.489868 221.684525,189.829300 221.946152,190.168732 
	C222.300705,189.783066 222.655243,189.397400 223.009796,189.011734 
z"/>
<path fill="#DEE1E3" opacity="1.000000" stroke="none" 
	d="
M227.650452,187.393707 
	C227.339554,186.836685 227.120087,186.421249 227.245270,186.212677 
	C228.261597,184.519394 226.253342,181.011169 230.141907,181.122925 
	C231.051453,181.149063 231.935089,182.076935 232.830643,182.589920 
	C231.187622,184.270325 229.544601,185.950729 227.650452,187.393707 
z"/>
<path fill="#000000" opacity="1.000000" stroke="none" 
	d="
M378.791565,177.318237 
	C381.043182,173.133148 384.204071,173.534576 387.456116,175.061569 
	C390.391174,176.439697 391.024384,179.120071 389.869415,181.776382 
	C387.626007,186.935883 383.253937,185.296661 378.761932,184.666077 
	C378.761932,182.311508 378.761932,180.041794 378.791565,177.318237 
z"/>
<path fill="#E4E7E9" opacity="1.000000" stroke="none" 
	d="
M223.004898,189.005814 
	C222.655243,189.397400 222.300705,189.783066 221.946152,190.168732 
	C221.684525,189.829300 221.422882,189.489868 221.161240,189.150452 
	C221.603210,189.030258 222.045166,188.910049 222.739105,188.888458 
	C222.991074,188.987045 223.000000,188.999893 223.004898,189.005814 
z"/>
</svg>